<?xml version="1.0" encoding="UTF-8"?>
<svg id="Livello_2" data-name="Livello 2" xmlns="http://www.w3.org/2000/svg" viewBox="0 0 121.17 72.31">
  <defs>
    <style>
      .cls-1 {
        fill: #d6d6d6;
      }

      .cls-1, .cls-2 {
        stroke-width: 0px;
      }

      .cls-2 {
        fill: #fff;
      }
    </style>
  </defs>
  <g id="Livello_2-2" data-name="Livello 2">
    <path class="cls-1" d="M114.85,68.59l1.88-4.12,1.89,4.12h-3.77ZM116.55,63.37l-4.04,8.81h.71l1.38-3.03h4.28l1.38,3.03h.71l-4.04-8.81h-.38ZM108.22,64c.74,0,1.31.15,1.71.45.4.3.6.72.6,1.26s-.2.97-.59,1.27c-.39.3-.96.45-1.69.45h-1.45v-3.42h1.43-.01ZM106.12,72.18h.68v-4.2h1.18c.55,0,.96.1,1.24.3.28.2.68.7,1.19,1.5l1.52,2.4h.8l-1.98-3.03c-.49-.75-.88-1.2-1.16-1.33,1.11-.41,1.67-1.12,1.67-2.13,0-.69-.25-1.24-.74-1.65-.5-.41-1.21-.61-2.15-.61h-2.24v8.75h0ZM99.84,63.43v8.75h4.87v-.56h-4.2v-3.55h3.99v-.57h-3.99v-3.5h4.1v-.56h-4.77ZM95.23,68.05c1.72,0,2.58.6,2.58,1.79,0,.54-.19.97-.58,1.29s-.96.48-1.7.48h-1.81v-3.56h1.52-.01ZM94.63,64c1.61,0,2.41.58,2.41,1.75s-.79,1.74-2.39,1.74h-.94v-3.49h.92ZM93.04,72.18h2.56c.9,0,1.62-.21,2.15-.63s.79-.98.79-1.69c0-1.19-.67-1.92-2.02-2.22.84-.45,1.26-1.1,1.26-1.95,0-.71-.25-1.26-.74-1.66s-1.22-.6-2.17-.6h-1.82v8.75h-.01ZM90.34,72.18h.68v-8.75h-.68v8.75ZM84.34,63.43v8.75h5v-.56h-4.33v-8.18h-.68.01ZM80.99,62.7h.43l-1.33-2h-1.04l1.95,2h0ZM78.06,63.43v8.75h4.87v-.56h-4.2v-3.55h3.99v-.57h-3.99v-3.5h4.1v-.56h-4.77ZM69,70.55c-.76-.75-1.13-1.66-1.13-2.74s.38-2,1.13-2.75c.76-.74,1.68-1.12,2.77-1.12s2.01.37,2.76,1.12c.75.74,1.12,1.66,1.12,2.75s-.38,1.99-1.12,2.74c-.75.74-1.67,1.12-2.76,1.12s-2.02-.37-2.77-1.12M68.47,64.63c-.89.87-1.34,1.93-1.34,3.18s.45,2.31,1.34,3.18c.9.87,1.99,1.31,3.28,1.31s2.39-.44,3.29-1.31c.9-.87,1.35-1.93,1.35-3.18s-.45-2.31-1.35-3.18c-.9-.87-2-1.31-3.29-1.31s-2.38.43-3.28,1.31M64.81,72.18h.68v-8.75h-.68v8.75ZM62.11,63.43v4.04h-5.84v-4.04h-.68v8.75h.68v-4.15h5.84v4.15h.68v-8.75h-.68ZM51.13,63.32c-1.25,0-2.33.43-3.24,1.29-.91.86-1.36,1.93-1.36,3.21s.44,2.34,1.33,3.19,2,1.28,3.33,1.28c1.03,0,2.07-.27,3.1-.82v-.7c-1.12.6-2.16.89-3.11.89-1.14,0-2.08-.36-2.81-1.08s-1.1-1.64-1.1-2.76.36-2.03,1.1-2.77c.73-.74,1.64-1.11,2.72-1.11,1.02,0,2.06.28,3.12.85v-.74c-1.06-.49-2.09-.73-3.07-.73M42.45,63.32c-1.25,0-2.33.43-3.24,1.29-.91.86-1.36,1.93-1.36,3.21s.44,2.34,1.33,3.19c.89.85,2,1.28,3.33,1.28,1.03,0,2.06-.27,3.1-.82v-.7c-1.12.6-2.16.89-3.11.89-1.14,0-2.08-.36-2.81-1.08-.74-.72-1.1-1.64-1.1-2.76s.37-2.03,1.1-2.77,1.64-1.11,2.72-1.11c1.02,0,2.06.28,3.12.85v-.74c-1.06-.49-2.09-.73-3.07-.73M31.97,63.43v8.75h4.87v-.56h-4.2v-3.55h3.99v-.57h-3.99v-3.5h4.1v-.56h-4.77,0ZM27.48,63.32c-1.25,0-2.33.43-3.24,1.29s-1.36,1.93-1.36,3.21.44,2.34,1.33,3.19c.89.85,2,1.28,3.33,1.28,1.03,0,2.06-.27,3.1-.82v-.7c-1.12.6-2.16.89-3.11.89-1.14,0-2.08-.36-2.81-1.08-.74-.72-1.1-1.64-1.1-2.76s.37-2.03,1.1-2.77,1.64-1.11,2.72-1.11c1.02,0,2.06.28,3.12.85v-.74c-1.07-.49-2.09-.73-3.08-.73M20.77,68.24c0,1.09-.28,1.94-.83,2.53s-1.27.89-2.16.89-1.59-.29-2.14-.88-.83-1.41-.83-2.45v-4.9h-.68v4.93c0,1.22.34,2.18,1.02,2.88.68.7,1.56,1.05,2.64,1.05s1.96-.35,2.64-1.07c.68-.71,1.02-1.72,1.02-3.02v-4.77h-.68s0,4.81,0,4.81ZM8.69,63.43v8.75h.68v-4.3h3.45v-.56h-3.45v-3.33h3.83v-.56h-4.51ZM4.94,66.66l-.51,2.45H1.99l.51-2.45h2.44ZM2.03,66.06H.21v.6h1.69l-.51,2.45H.21v.59h1.07l-.54,2.61h.59l.54-2.61h2.44l-.54,2.61h.59l.54-2.61h1.81v-.59h-1.68l.51-2.45h1.17v-.6h-1.05l.55-2.63h-.59l-.55,2.63h-2.45l.55-2.63h-.59l-.54,2.63h-.01Z"/>
    <path class="cls-2" d="M7.61,4.85H0v-1.22h45.28v17.51h-1.22c0-6.95-1.37-11.47-4.11-13.55-2.38-1.83-7.41-2.74-15.07-2.74h-9.51v51.14h7.61v1.22H0v-1.22h7.61V4.85Z"/>
    <path class="cls-2" d="M65.87,36.52c0,.35-.18.53-.53.53h-12.71v-2.13c0-6.24,2.31-9.36,6.93-9.36,4.21,0,6.32,3.12,6.32,9.36v1.6h-.01ZM73.18,37.58c0-2.28-1.14-4.9-3.43-7.84-2.84-3.6-6.24-5.4-10.2-5.4s-7.31,1.9-10.2,5.71c-2.69,3.5-4.03,7.23-4.03,11.19,0,5.02,1.41,9.1,4.22,12.22,2.82,3.12,6.46,4.68,10.92,4.68,3.45,0,6.39-1.07,8.83-3.2s3.96-4.97,4.57-8.53h-1.22c-.56,3.15-1.94,5.68-4.15,7.61s-4.88,2.89-8.03,2.89-5.4-1.24-6.62-3.73c-.81-1.67-1.22-4.26-1.22-7.76v-7.15h19.86c.46,0,.69-.23.69-.69"/>
    <path class="cls-2" d="M83.5,56h-7.61v1.22h45.28v-17.51h-1.22c0,6.95-1.37,11.47-4.11,13.55-2.38,1.83-7.41,2.74-15.07,2.74h-9.51V4.85h7.61v-1.22h-22.99v1.22h7.61v51.14h.01Z"/>
    <path class="cls-2" d="M.06,25.98c.21.03.43-.07.64.06.15-.12.33-.03.49-.06.21-.04.4.07.61.06.2,0,.4.02.59.12.02,0,.04,0,.06,0,.33-.02.64.1.97.06.21-.02.42-.01.63,0,.13,0,.27-.03.4.05.1.06.24.01.37.05.11.04.26.1.4.01.47,0,.95,0,1.42,0,.04,0,.08.05.12.04.22-.06.45-.07.67-.12.07-.02.15-.03.23-.03.38,0,.77,0,1.15,0,.28,0,.58,0,.85-.07.27-.07.55-.07.8-.17.06-.02.14,0,.21,0,.2,0,.4-.05.59-.11.03,0,.06-.01.09-.01.14,0,.27,0,.4-.05.05-.02.16.06.2.03.08-.05.15-.03.23-.03.1,0,.19-.01.28-.06.07-.04.18.04.25-.05.02-.02.07-.02.11-.02.31.04.61-.06.91-.06.07,0,.15-.03.22-.06.21-.08.43-.05.64-.06.15,0,.31.04.46-.05.09-.05.2.02.31,0,.22-.03.43-.06.64-.13.05-.02.12,0,.18,0,.44,0,.89,0,1.33,0,.14,0,.3.04.41-.02.12-.07.27.04.36-.09,0,0,.02,0,.03,0,.24-.02.49-.06.73-.06,1.19,0,2.38,0,3.56,0,.14,0,.29-.05.44.04.12.07.28-.04.39.08.26.02.52.09.79.06.14-.01.3-.04.41.02.12.07.24.01.36.08.14.08.34.08.51.07.18-.01.35.05.51.08.2.04.39.1.59.11.16,0,.34,0,.48.07.12.06.24,0,.34.06.11.06.23.04.34.06.1.01.2.04.31.06.4.07.8.1,1.19.19.28.07.56.11.83.17.27.06.54.12.83.13.13,0,.25.08.37.11.13.03.28-.05.4.06.02.02.08,0,.12,0,.2,0,.4.05.59.11.12.04.27-.02.39.06.07-.1.1.05.17.02.06-.02.15-.03.22.03.05.04.13.01.2.03.04,0,.08.05.13.05.23.02.47.04.7.06.1.01.22.01.3.07.1.06.19.03.28.06.08.03.16.05.25.06.07,0,.14.04.22.06.09.02.18.05.28.06.09,0,.18,0,.27,0,.05,0,.11.04.16.05.27.05.55.09.82.13.09.01.17.02.25.06.08.03.17-.02.26.04.06.04.17.01.26.02.68.1.92.1,1.52-.01.34-.06.69-.18,1.02-.3.47-.17.71-.49.75-1,.02-.21.1-.41.23-.57.23-.28.52-.49.86-.62.13-.05.28-.09.41-.09.71,0,1.43-.02,2.14,0,.32,0,.63.12.92.25.1.04.19.12.29.17.25.11.5.08.74-.06.37-.22.68-.5,1.01-.76.26-.21.53-.41.8-.61.23-.18.48-.32.69-.52.18-.17.4-.3.6-.45.06-.05.12-.1.18-.15.14-.11.29-.22.44-.33.05-.04.09-.08.13-.12.14-.14.28-.29.43-.43.17-.15.33-.32.51-.45.28-.2.54-.42.78-.66.14-.14.28-.28.45-.38.16-.09.25-.27.44-.33.04-.01.07-.07.11-.1.43-.44.86-.86,1.37-1.2.19-.13.33-.32.49-.48.28-.28.6-.52.92-.75.21-.15.37-.37.56-.55.14-.13.3-.25.44-.39.13-.13.28-.23.44-.32.06-.04.1-.1.15-.15.23-.23.45-.49.71-.7.22-.17.43-.35.6-.57.22-.27.47-.51.71-.76.25-.26.57-.44.83-.67.37-.33.81-.55,1.19-.85.28-.22.63-.36.96-.53.33-.16.65-.34.95-.55.11-.08.25-.12.37-.2.22-.14.47-.23.7-.34.24-.11.46-.24.7-.36.3-.16.6-.32.88-.5.28-.18.58-.31.87-.46.37-.2.76-.36,1.13-.55.22-.11.43-.24.62-.39.09-.07.2-.11.29-.17.44-.26.92-.45,1.37-.7.11-.06.21-.13.31-.19.39-.22.78-.44,1.18-.64.16-.08.3-.18.47-.24.16-.06.32-.16.46-.26.15-.1.32-.17.46-.28.11-.09.24-.14.37-.2.4-.18.77-.4,1.12-.64.15-.1.33-.17.49-.27.23-.14.46-.29.69-.44.16-.1.34-.17.49-.28.31-.24.65-.44.96-.67.29-.21.56-.45.89-.61.13-.06.23-.18.34-.27.27-.21.53-.45.82-.64.02-.01.03-.03.04-.04.31-.29.62-.58.94-.87.1-.09.15-.2.27-.28.12-.08.2-.2.3-.29.11-.1.24-.17.33-.28.08-.09.2-.13.26-.25.05-.1.16-.17.24-.25h.28c-.24.28-.44.64-.6,1.14-.05.15-.16.26-.18.41-.03.15-.16.24-.25.35-.16.2-.32.41-.48.62-.07.1-.13.21-.21.3-.22.24-.33.55-.51.81-.11.16-.21.34-.32.5-.06.09-.02.22-.15.27.03.16-.13.23-.17.35-.12.32-.34.57-.57.82-.14.15-.25.32-.31.53-.08.25-.23.49-.35.73-.25.5-.34.67-.65.94-.23.2-.48.38-.74.54-.33.21-.68.36-1,.58-.18.12-.28.28-.39.44-.14.21-.25.45-.43.64-.33.33-.72.55-1.14.75-.19.09-.38.22-.55.34-.14.1-.22.25-.29.39-.11.2-.24.36-.45.48-.07.04-.12.13-.21.16-.15.06-.3.11-.44.17-.48.2-.71.3-.98.62-.1.12-.21.25-.27.4-.04.1-.11.16-.18.22-.06.06-.11.14-.18.2-.23.21-.46.42-.62.7-.07.12-.18.23-.29.33-.2.19-.43.35-.57.6-.06.11-.17.19-.27.28-.16.14-.34.26-.49.41-.1.09-.2.19-.26.3-.09.16-.22.27-.35.4-.23.23-.44.47-.62.74-.04.07-.14.1-.21.15-.19.13-.37.27-.56.4-.24.18-.51.29-.74.47-.16.12-.33.23-.48.37-.15.14-.33.24-.53.32-.26.1-.53.23-.72.45-.19.22-.43.4-.68.55-.12.07-.19.17-.29.24-.1.06-.21.1-.23.23-.28.2-.53.45-.82.64-.04.03-.09.04-.12.07-.25.28-.56.46-.88.66-.15.09-.29.19-.41.32-.09.1-.19.19-.31.26-.14.09-.27.2-.38.32-.26.27-.54.49-.86.69-.27.16-.5.39-.74.61-.17.16-.33.33-.49.49-.17.17-.35.32-.56.46-.21.13-.39.34-.52.56-.11.19-.27.33-.44.45-.07.05-.13.12-.2.18-.3.29-.6.56-.92.82-.31.25-.6.52-.93.74-.12.08-.24.17-.33.3-.08.13-.2.25-.3.36-.33.35-.65.72-1.07.97-.15.09-.28.21-.4.34-.1.12-.16.27-.25.41-.17.27-.36.53-.51.82-.19.36-.4.72-.46,1.14,0,.03-.05.06-.05.1,0,.06.02.13.03.21,0,.01-.03.06-.03.1,0,.56,0,1.13,0,1.69,0,.08.07.15.02.26-.03.06.02.18.05.27.03.09.08.17.12.25.06.13.14.25.23.36.14.17.27.35.41.52.1.13.2.26.32.38.22.21.42.44.58.7.08.12.18.23.28.34.11.12.24.22.34.35.08.11.13.25.2.41,0,0,0,.06,0,.11.04.34-.14.58-.39.77-.09.07-.18.14-.27.22-.11.1-.22.21-.32.32-.26.27-.53.51-.86.7-.16.09-.3.23-.48.29-.17.06-.34.14-.52.2-.12.04-.25.08-.38.09-.13,0-.24.05-.35.11-.11.05-.24-.04-.33.08-.01.02-.08,0-.12,0-.12,0-.23,0-.34.05-.1.04-.22.02-.34.06-.19.06-.4.06-.61.07-.28.01-.57.02-.85,0-.54-.04-.97-.28-1.22-.78-.13-.27-.22-.57-.35-.85-.05-.11.05-.24-.08-.33.02-.17-.07-.31-.12-.46-.09-.28-.2-.56-.28-.85-.09-.31-.25-.58-.43-.85-.09-.14-.21-.26-.32-.38-.11-.13-.24-.22-.33-.38-.05-.08-.17-.13-.24-.2-.14-.13-.27-.27-.41-.4-.14-.15-.31-.26-.48-.37-.06-.04-.1-.09-.15-.14-.11-.11-.2-.24-.32-.31-.12-.07-.16-.2-.27-.28-.12-.09-.22-.21-.32-.32-.06-.06-.09-.15-.15-.21-.22-.23-.45-.39-.79-.44-.26-.04-.51-.04-.76-.04-.14,0-.28-.03-.39-.08-.19-.1-.4-.12-.59-.17-.3-.08-.62-.06-.9-.23-.26.01-.49-.12-.74-.19-.14-.04-.28-.1-.46-.17-.17.05-.34-.09-.52-.16-.33-.12-.66-.2-1-.28-.11-.02-.22-.06-.34-.06-.1,0-.22-.01-.3-.06-.11-.06-.24-.02-.34-.06-.22-.09-.45-.05-.67-.05-.23,0-.44-.09-.67-.07-.22.02-.44,0-.66,0-.05,0-.11-.11-.16,0-.05-.09-.14-.05-.22-.06-.06-.01-.11-.07-.18-.08-.23-.05-.45-.15-.69-.16-.06,0-.13-.02-.21-.03,0,0-.02.02-.05.04-.05-.02-.1-.07-.15-.06-.4,0-.78-.1-1.18-.07-.07,0-.13.08-.23.02-.06-.04-.18,0-.26-.01-.07-.01-.13-.07-.22-.06-.09.01-.19.03-.27,0-.25-.1-.53-.05-.77-.17-.06-.03-.14,0-.21,0-.11,0-.24.03-.32-.02-.1-.06-.18.1-.25,0-.08-.1-.23.02-.29-.1-.2-.02-.41-.05-.61-.06-.27,0-.54-.07-.81-.1-.06,0-.13.1-.19,0-.21.11-.46-.04-.67.09-.02.01-.06.02-.08.01-.31-.12-.65-.04-.95-.18-.05-.02-.12,0-.18,0-.39,0-.79-.02-1.18,0-.34.02-.67-.04-1-.08-.24-.03-.49-.06-.71-.16-.1-.04-.22.05-.31-.06-.34.02-.64-.22-.98-.18-.12-.08-.26-.06-.4-.06-.47,0-.75-.04-1.17-.19-.12-.05-.26-.1-.38-.1-.16.01-.33.03-.48.07-.15.04-.3.09-.44.08-.24,0-.48-.06-.62-.33-.06-.12-.13-.29-.31-.31-.33-.08-.61.1-.91.18-.17.04-.32.11-.5.11-.03,0-.08-.01-.09,0-.12.14-.24.01-.34-.01-.11-.02-.23-.07-.27-.22-.02-.09-.16-.12-.17-.24-.03,0-.06,0-.08-.01-.14-.1-.27-.19-.44-.06-.38,0-.72.19-1.1.18-.26.12-.53.07-.79.05-.19-.02-.39-.05-.58-.05-.12,0-.23,0-.34.05-.09.05-.22-.04-.31.06-.02.02-.08.02-.11,0-.29-.08-.6-.07-.88-.2-.19-.09-.42-.15-.63-.15-.25,0-.49-.03-.73-.08-.32-.07-.65-.11-.97-.21-.19-.06-.41-.08-.61-.14-.08-.02-.17-.03-.25-.06-.3-.12-.63-.19-.92-.32-.17-.08-.34-.18-.48-.3-.23-.19-.5-.31-.75-.46-.22-.13-.42-.29-.65-.4-.23-.11-.43-.26-.65-.39-.27-.16-.56-.25-.85-.36-.11-.05-.21-.12-.32-.18,0-.18,0-.36,0-.54Z"/>
  </g>
</svg>